<svg width="1600" height="900" viewBox="0 0 1600 900" fill="none" xmlns="http://www.w3.org/2000/svg">
  <rect width="1600" height="900" fill="#0F172A"/>
  <rect width="1600" height="900" fill="url(#bg)"/>
  <circle cx="1250" cy="220" r="230" fill="url(#glowA)" fill-opacity="0.8"/>
  <circle cx="360" cy="720" r="280" fill="url(#glowB)" fill-opacity="0.6"/>
  <rect x="180" y="150" width="1240" height="600" rx="36" fill="rgba(15,23,42,0.52)" stroke="rgba(255,255,255,0.14)" stroke-width="3"/>
  <rect x="260" y="240" width="260" height="36" rx="18" fill="#60A5FA"/>
  <rect x="260" y="330" width="720" height="42" rx="21" fill="rgba(255,255,255,0.88)"/>
  <rect x="260" y="392" width="640" height="42" rx="21" fill="rgba(255,255,255,0.74)"/>
  <rect x="260" y="484" width="460" height="24" rx="12" fill="rgba(191,219,254,0.95)"/>
  <rect x="260" y="532" width="390" height="24" rx="12" fill="rgba(191,219,254,0.7)"/>
  <rect x="1040" y="310" width="180" height="230" rx="28" fill="#F8FAFC" fill-opacity="0.92"/>
  <rect x="1082" y="360" width="96" height="18" rx="9" fill="#1D4ED8"/>
  <rect x="1082" y="404" width="96" height="18" rx="9" fill="#1D4ED8" fill-opacity="0.7"/>
  <rect x="1082" y="448" width="96" height="18" rx="9" fill="#1D4ED8" fill-opacity="0.45"/>
  <defs>
    <linearGradient id="bg" x1="180" y1="140" x2="1410" y2="760" gradientUnits="userSpaceOnUse">
      <stop stop-color="#1D4ED8"/>
      <stop offset="0.52" stop-color="#0F172A"/>
      <stop offset="1" stop-color="#14B8A6"/>
    </linearGradient>
    <radialGradient id="glowA" cx="0" cy="0" r="1" gradientUnits="userSpaceOnUse" gradientTransform="translate(1250 220) rotate(90) scale(230)">
      <stop stop-color="#FDE68A"/>
      <stop offset="1" stop-color="#FDE68A" stop-opacity="0"/>
    </radialGradient>
    <radialGradient id="glowB" cx="0" cy="0" r="1" gradientUnits="userSpaceOnUse" gradientTransform="translate(360 720) rotate(90) scale(280)">
      <stop stop-color="#38BDF8"/>
      <stop offset="1" stop-color="#38BDF8" stop-opacity="0"/>
    </radialGradient>
  </defs>
</svg>
