<svg width="1600" height="900" viewBox="0 0 1600 900" fill="none" xmlns="http://www.w3.org/2000/svg">
  <rect width="1600" height="900" fill="#020617"/>
  <rect width="1600" height="900" fill="url(#bg)"/>
  <circle cx="1180" cy="250" r="250" fill="url(#glowA)" fill-opacity="0.8"/>
  <circle cx="420" cy="710" r="260" fill="url(#glowB)" fill-opacity="0.55"/>
  <rect x="170" y="150" width="1260" height="600" rx="40" fill="rgba(2,6,23,0.5)" stroke="rgba(255,255,255,0.14)" stroke-width="3"/>
  <rect x="250" y="232" width="220" height="34" rx="17" fill="#22C55E"/>
  <rect x="250" y="312" width="820" height="44" rx="22" fill="rgba(255,255,255,0.9)"/>
  <rect x="250" y="376" width="780" height="44" rx="22" fill="rgba(255,255,255,0.72)"/>
  <rect x="250" y="462" width="460" height="24" rx="12" fill="rgba(209,250,229,0.96)"/>
  <rect x="250" y="512" width="400" height="24" rx="12" fill="rgba(209,250,229,0.72)"/>
  <circle cx="1135" cy="468" r="130" fill="rgba(15,23,42,0.55)" stroke="rgba(255,255,255,0.18)" stroke-width="3"/>
  <circle cx="1135" cy="468" r="72" fill="#F8FAFC" fill-opacity="0.95"/>
  <path d="M1135 370V566" stroke="#38BDF8" stroke-width="18" stroke-linecap="round"/>
  <path d="M1037 468H1233" stroke="#38BDF8" stroke-width="18" stroke-linecap="round"/>
  <defs>
    <linearGradient id="bg" x1="180" y1="120" x2="1430" y2="760" gradientUnits="userSpaceOnUse">
      <stop stop-color="#0F766E"/>
      <stop offset="0.5" stop-color="#111827"/>
      <stop offset="1" stop-color="#7C3AED"/>
    </linearGradient>
    <radialGradient id="glowA" cx="0" cy="0" r="1" gradientUnits="userSpaceOnUse" gradientTransform="translate(1180 250) rotate(90) scale(250)">
      <stop stop-color="#5EEAD4"/>
      <stop offset="1" stop-color="#5EEAD4" stop-opacity="0"/>
    </radialGradient>
    <radialGradient id="glowB" cx="0" cy="0" r="1" gradientUnits="userSpaceOnUse" gradientTransform="translate(420 710) rotate(90) scale(260)">
      <stop stop-color="#A78BFA"/>
      <stop offset="1" stop-color="#A78BFA" stop-opacity="0"/>
    </radialGradient>
  </defs>
</svg>
